<svg width="23" height="23" viewBox="0 0 23 23" fill="none" xmlns="http://www.w3.org/2000/svg">
<path d="M6.35313 16.6469H8.71562L14.8469 10.5156L12.4844 8.15313L6.35313 14.2844V16.6469ZM15.5219 9.84063L16.3094 9.05313C16.5344 8.82812 16.6469 8.56563 16.6469 8.26562C16.6469 7.96562 16.5344 7.70312 16.3094 7.47813L15.5219 6.69062C15.2969 6.46562 15.0344 6.35313 14.7344 6.35313C14.4344 6.35313 14.1719 6.46562 13.9469 6.69062L13.1594 7.47813L15.5219 9.84063ZM11.5 22.75C9.94375 22.75 8.48125 22.4547 7.1125 21.8641C5.74375 21.2734 4.55312 20.4719 3.54062 19.4594C2.52812 18.4469 1.72656 17.2563 1.13594 15.8875C0.545312 14.5188 0.25 13.0562 0.25 11.5C0.25 9.94375 0.545312 8.48125 1.13594 7.1125C1.72656 5.74375 2.52812 4.55312 3.54062 3.54062C4.55312 2.52812 5.74375 1.72656 7.1125 1.13594C8.48125 0.545312 9.94375 0.25 11.5 0.25C13.0562 0.25 14.5188 0.545312 15.8875 1.13594C17.2563 1.72656 18.4469 2.52812 19.4594 3.54062C20.4719 4.55312 21.2734 5.74375 21.8641 7.1125C22.4547 8.48125 22.75 9.94375 22.75 11.5C22.75 13.0562 22.4547 14.5188 21.8641 15.8875C21.2734 17.2563 20.4719 18.4469 19.4594 19.4594C18.4469 20.4719 17.2563 21.2734 15.8875 21.8641C14.5188 22.4547 13.0562 22.75 11.5 22.75Z" fill="white"/>
</svg>
